<svg width="216" height="22" viewBox="0 0 216 22" fill="none" xmlns="http://www.w3.org/2000/svg">
<path d="M9.594 22H5.31C3.83667 22 2.66933 21.5693 1.808 20.708C0.969333 19.8467 0.55 18.668 0.55 17.172V4.966C0.55 3.47 0.969333 2.29133 1.808 1.43C2.66933 0.568666 3.83667 0.138 5.31 0.138H9.594C11.0673 0.138 12.2233 0.568666 13.062 1.43C13.9233 2.29133 14.354 3.47 14.354 4.966V6.632C14.354 6.904 14.2293 7.04 13.98 7.04H13.028C12.7787 7.04 12.654 6.904 12.654 6.632V5.034C12.654 3.946 12.3707 3.11867 11.804 2.552C11.26 1.96267 10.4667 1.668 9.424 1.668H5.446C4.40333 1.668 3.61 1.96267 3.066 2.552C2.522 3.14133 2.25 3.96867 2.25 5.034V17.104C2.25 18.1693 2.522 18.9967 3.066 19.586C3.61 20.1753 4.40333 20.47 5.446 20.47H9.424C10.4667 20.47 11.26 20.1867 11.804 19.62C12.3707 19.0307 12.654 18.192 12.654 17.104V15.506C12.654 15.234 12.7787 15.098 13.028 15.098H13.98C14.2293 15.098 14.354 15.234 14.354 15.506V17.172C14.354 18.668 13.9233 19.8467 13.062 20.708C12.2233 21.5693 11.0673 22 9.594 22ZM23.8737 20.47H27.7497C28.7924 20.47 29.5857 20.1867 30.1297 19.62C30.6964 19.0307 30.9797 18.192 30.9797 17.104V5.034C30.9797 3.946 30.6964 3.11867 30.1297 2.552C29.5857 1.96267 28.7924 1.668 27.7497 1.668H23.8737C22.8311 1.668 22.0377 1.96267 21.4937 2.552C20.9497 3.14133 20.6777 3.96867 20.6777 5.034V17.104C20.6777 18.1693 20.9497 18.9967 21.4937 19.586C22.0377 20.1753 22.8311 20.47 23.8737 20.47ZM27.9197 22H23.7377C22.2644 22 21.0971 21.5693 20.2357 20.708C19.3971 19.8467 18.9777 18.668 18.9777 17.172V4.966C18.9777 3.47 19.3971 2.29133 20.2357 1.43C21.0971 0.568666 22.2644 0.138 23.7377 0.138H27.9197C29.3931 0.138 30.5491 0.568666 31.3877 1.43C32.2491 2.29133 32.6797 3.47 32.6797 4.966V17.172C32.6797 18.668 32.2491 19.8467 31.3877 20.708C30.5491 21.5693 29.3931 22 27.9197 22ZM39.4367 22H38.4507C38.224 22 38.1107 21.864 38.1107 21.592V0.545999C38.1107 0.273999 38.224 0.138 38.4507 0.138H39.3687C39.5727 0.138 39.7087 0.206 39.7767 0.341999L50.2147 18.294H50.3507V0.545999C50.3507 0.273999 50.4754 0.138 50.7247 0.138H51.6767C51.926 0.138 52.0507 0.273999 52.0507 0.545999V21.592C52.0507 21.864 51.926 22 51.6767 22H50.8947C50.6907 22 50.5094 21.8753 50.3507 21.626L39.9467 3.81H39.8107V21.592C39.8107 21.864 39.686 22 39.4367 22ZM59.1262 22H58.1402C57.9135 22 57.8002 21.864 57.8002 21.592V0.545999C57.8002 0.273999 57.9135 0.138 58.1402 0.138H59.0582C59.2622 0.138 59.3982 0.206 59.4662 0.341999L69.9042 18.294H70.0402V0.545999C70.0402 0.273999 70.1648 0.138 70.4142 0.138H71.3662C71.6155 0.138 71.7402 0.273999 71.7402 0.545999V21.592C71.7402 21.864 71.6155 22 71.3662 22H70.5842C70.3802 22 70.1988 21.8753 70.0402 21.626L59.6362 3.81H59.5002V21.592C59.5002 21.864 59.3755 22 59.1262 22ZM88.3356 22H77.8296C77.6029 22 77.4896 21.864 77.4896 21.592V0.545999C77.4896 0.273999 77.6029 0.138 77.8296 0.138H88.3356C88.6076 0.138 88.7436 0.262666 88.7436 0.511999V1.294C88.7436 1.54333 88.6076 1.668 88.3356 1.668H79.5296C79.3029 1.668 79.1896 1.77 79.1896 1.974V9.794C79.1896 9.998 79.3029 10.1 79.5296 10.1H87.3836C87.6329 10.1 87.7576 10.2247 87.7576 10.474V11.256C87.7576 11.5053 87.6329 11.63 87.3836 11.63H79.5296C79.3029 11.63 79.1896 11.732 79.1896 11.936V20.164C79.1896 20.368 79.3029 20.47 79.5296 20.47H88.3356C88.6076 20.47 88.7436 20.5947 88.7436 20.844V21.626C88.7436 21.8753 88.6076 22 88.3356 22ZM102.563 22H98.2788C96.8054 22 95.6381 21.5693 94.7768 20.708C93.9381 19.8467 93.5188 18.668 93.5188 17.172V4.966C93.5188 3.47 93.9381 2.29133 94.7768 1.43C95.6381 0.568666 96.8054 0.138 98.2788 0.138H102.563C104.036 0.138 105.192 0.568666 106.031 1.43C106.892 2.29133 107.323 3.47 107.323 4.966V6.632C107.323 6.904 107.198 7.04 106.949 7.04H105.997C105.747 7.04 105.623 6.904 105.623 6.632V5.034C105.623 3.946 105.339 3.11867 104.773 2.552C104.229 1.96267 103.435 1.668 102.393 1.668H98.4148C97.3721 1.668 96.5788 1.96267 96.0348 2.552C95.4908 3.14133 95.2188 3.96867 95.2188 5.034V17.104C95.2188 18.1693 95.4908 18.9967 96.0348 19.586C96.5788 20.1753 97.3721 20.47 98.4148 20.47H102.393C103.435 20.47 104.229 20.1867 104.773 19.62C105.339 19.0307 105.623 18.192 105.623 17.104V15.506C105.623 15.234 105.747 15.098 105.997 15.098H106.949C107.198 15.098 107.323 15.234 107.323 15.506V17.172C107.323 18.668 106.892 19.8467 106.031 20.708C105.192 21.5693 104.036 22 102.563 22ZM117.046 22H116.06C115.811 22 115.686 21.864 115.686 21.592V1.974C115.686 1.77 115.573 1.668 115.346 1.668H110.416C110.144 1.668 110.008 1.54333 110.008 1.294V0.511999C110.008 0.262666 110.144 0.138 110.416 0.138H122.656C122.928 0.138 123.064 0.262666 123.064 0.511999V1.294C123.064 1.54333 122.928 1.668 122.656 1.668H117.726C117.5 1.668 117.386 1.77 117.386 1.974V21.592C117.386 21.864 117.273 22 117.046 22ZM134.398 22H133.412C133.185 22 133.072 21.864 133.072 21.592V0.545999C133.072 0.273999 133.185 0.138 133.412 0.138H141.232C142.705 0.138 143.872 0.568666 144.734 1.43C145.595 2.29133 146.026 3.47 146.026 4.966V8.944C146.026 10.44 145.595 11.6187 144.734 12.48C143.872 13.3413 142.705 13.772 141.232 13.772H135.112C134.885 13.772 134.772 13.8627 134.772 14.044V21.592C134.772 21.864 134.647 22 134.398 22ZM135.112 12.208H141.096C142.138 12.208 142.932 11.9247 143.476 11.358C144.02 10.7687 144.292 9.94133 144.292 8.876V5.034C144.292 3.946 144.02 3.11867 143.476 2.552C142.932 1.96267 142.138 1.668 141.096 1.668H135.112C134.885 1.668 134.772 1.77 134.772 1.974V11.936C134.772 12.1173 134.885 12.208 135.112 12.208ZM155.458 20.47H159.334C160.376 20.47 161.17 20.1867 161.714 19.62C162.28 19.0307 162.564 18.192 162.564 17.104V5.034C162.564 3.946 162.28 3.11867 161.714 2.552C161.17 1.96267 160.376 1.668 159.334 1.668H155.458C154.415 1.668 153.622 1.96267 153.078 2.552C152.534 3.14133 152.262 3.96867 152.262 5.034V17.104C152.262 18.1693 152.534 18.9967 153.078 19.586C153.622 20.1753 154.415 20.47 155.458 20.47ZM159.504 22H155.322C153.848 22 152.681 21.5693 151.82 20.708C150.981 19.8467 150.562 18.668 150.562 17.172V4.966C150.562 3.47 150.981 2.29133 151.82 1.43C152.681 0.568666 153.848 0.138 155.322 0.138H159.504C160.977 0.138 162.133 0.568666 162.972 1.43C163.833 2.29133 164.264 3.47 164.264 4.966V17.172C164.264 18.668 163.833 19.8467 162.972 20.708C162.133 21.5693 160.977 22 159.504 22ZM171.021 22H170.035C169.808 22 169.695 21.864 169.695 21.592V0.545999C169.695 0.273999 169.808 0.138 170.035 0.138H177.787C179.26 0.138 180.427 0.568666 181.289 1.43C182.15 2.29133 182.581 3.47 182.581 4.966V8.196C182.581 9.46533 182.252 10.508 181.595 11.324C180.96 12.14 180.087 12.6613 178.977 12.888V13.024L183.023 21.592C183.159 21.864 183.079 22 182.785 22H181.731C181.436 22 181.232 21.864 181.119 21.592L177.107 13.024H171.735C171.508 13.024 171.395 13.126 171.395 13.33V21.592C171.395 21.864 171.27 22 171.021 22ZM171.735 11.562H177.617C178.659 11.562 179.464 11.2787 180.031 10.712C180.597 10.1227 180.881 9.29533 180.881 8.23V5.034C180.881 3.96867 180.597 3.14133 180.031 2.552C179.464 1.96267 178.659 1.668 177.617 1.668H171.735C171.508 1.668 171.395 1.77 171.395 1.974V11.256C171.395 11.46 171.508 11.562 171.735 11.562ZM192.617 22H191.631C191.381 22 191.257 21.864 191.257 21.592V1.974C191.257 1.77 191.143 1.668 190.917 1.668H185.987C185.715 1.668 185.579 1.54333 185.579 1.294V0.511999C185.579 0.262666 185.715 0.138 185.987 0.138H198.227C198.499 0.138 198.635 0.262666 198.635 0.511999V1.294C198.635 1.54333 198.499 1.668 198.227 1.668H193.297C193.07 1.668 192.957 1.77 192.957 1.974V21.592C192.957 21.864 192.843 22 192.617 22ZM206.69 20.47H210.566C211.609 20.47 212.402 20.1867 212.946 19.62C213.513 19.0307 213.796 18.192 213.796 17.104V5.034C213.796 3.946 213.513 3.11867 212.946 2.552C212.402 1.96267 211.609 1.668 210.566 1.668H206.69C205.647 1.668 204.854 1.96267 204.31 2.552C203.766 3.14133 203.494 3.96867 203.494 5.034V17.104C203.494 18.1693 203.766 18.9967 204.31 19.586C204.854 20.1753 205.647 20.47 206.69 20.47ZM210.736 22H206.554C205.081 22 203.913 21.5693 203.052 20.708C202.213 19.8467 201.794 18.668 201.794 17.172V4.966C201.794 3.47 202.213 2.29133 203.052 1.43C203.913 0.568666 205.081 0.138 206.554 0.138H210.736C212.209 0.138 213.365 0.568666 214.204 1.43C215.065 2.29133 215.496 3.47 215.496 4.966V17.172C215.496 18.668 215.065 19.8467 214.204 20.708C213.365 21.5693 212.209 22 210.736 22Z" fill="white"/>
<path d="M127.856 17.546V21.592C127.856 21.864 127.742 22 127.516 22H126.326C126.076 22 125.952 21.864 125.952 21.592V17.546C125.952 17.2967 126.076 17.172 126.326 17.172H127.516C127.742 17.172 127.856 17.2967 127.856 17.546Z" fill="#0EA4E9"/>
</svg>
