<svg width="313" height="72" viewBox="0 0 313 72" fill="none" xmlns="http://www.w3.org/2000/svg">
<path d="M96.2457 30.6728C96.2457 28.7028 96.6899 26.9357 97.5783 25.3713C98.4667 23.7876 99.6738 22.5515 101.2 21.6631C102.745 20.7747 104.454 20.3305 106.327 20.3305C108.529 20.3305 110.451 20.8616 112.092 21.9239C113.734 22.9861 114.931 24.4925 115.685 26.4432H112.527C111.967 25.2264 111.156 24.2897 110.093 23.6331C109.05 22.9764 107.795 22.6481 106.327 22.6481C104.917 22.6481 103.652 22.9764 102.532 23.6331C101.412 24.2897 100.533 25.2264 99.8959 26.4432C99.2586 27.6406 98.9399 29.0505 98.9399 30.6728C98.9399 32.2758 99.2586 33.6857 99.8959 34.9024C100.533 36.0998 101.412 37.0269 102.532 37.6835C103.652 38.3402 104.917 38.6685 106.327 38.6685C107.795 38.6685 109.05 38.3498 110.093 37.7125C111.156 37.0559 111.967 36.1192 112.527 34.9024H115.685C114.931 36.8337 113.734 38.3305 112.092 39.3928C110.451 40.4357 108.529 40.9571 106.327 40.9571C104.454 40.9571 102.745 40.5226 101.2 39.6535C99.6738 38.7651 98.4667 37.5387 97.5783 35.9743C96.6899 34.4099 96.2457 32.6428 96.2457 30.6728ZM128.763 40.9861C126.89 40.9861 125.181 40.5516 123.636 39.6825C122.091 38.7941 120.864 37.5677 119.957 36.0033C119.068 34.4196 118.624 32.6428 118.624 30.6728C118.624 28.7028 119.068 26.9357 119.957 25.3713C120.864 23.7876 122.091 22.5612 123.636 21.6921C125.181 20.8037 126.89 20.3595 128.763 20.3595C130.656 20.3595 132.375 20.8037 133.92 21.6921C135.465 22.5612 136.682 23.7779 137.57 25.3423C138.459 26.9067 138.903 28.6835 138.903 30.6728C138.903 32.6621 138.459 34.4389 137.57 36.0033C136.682 37.5677 135.465 38.7941 133.92 39.6825C132.375 40.5516 130.656 40.9861 128.763 40.9861ZM128.763 38.6975C130.173 38.6975 131.438 38.3692 132.558 37.7125C133.698 37.0559 134.586 36.1192 135.224 34.9024C135.88 33.6857 136.209 32.2758 136.209 30.6728C136.209 29.0505 135.88 27.6406 135.224 26.4432C134.586 25.2264 133.708 24.2897 132.587 23.6331C131.467 22.9764 130.193 22.6481 128.763 22.6481C127.334 22.6481 126.06 22.9764 124.939 23.6331C123.819 24.2897 122.931 25.2264 122.274 26.4432C121.637 27.6406 121.318 29.0505 121.318 30.6728C121.318 32.2758 121.637 33.6857 122.274 34.9024C122.931 36.1192 123.819 37.0559 124.939 37.7125C126.079 38.3692 127.354 38.6975 128.763 38.6975ZM158.259 40.7833H155.622L145.019 24.705V40.7833H142.383V20.5623H145.019L155.622 36.6116V20.5623H158.259V40.7833ZM178.628 40.7833H175.992L165.389 24.705V40.7833H162.753V20.5623H165.389L175.992 36.6116V20.5623H178.628V40.7833ZM185.758 22.735V29.485H193.117V31.6578H185.758V38.6106H193.986V40.7833H183.122V20.5623H193.986V22.735H185.758ZM196.99 30.6728C196.99 28.7028 197.434 26.9357 198.323 25.3713C199.211 23.7876 200.418 22.5515 201.944 21.6631C203.489 20.7747 205.198 20.3305 207.072 20.3305C209.273 20.3305 211.195 20.8616 212.837 21.9239C214.478 22.9861 215.676 24.4925 216.429 26.4432H213.271C212.711 25.2264 211.9 24.2897 210.838 23.6331C209.795 22.9764 208.539 22.6481 207.072 22.6481C205.662 22.6481 204.397 22.9764 203.277 23.6331C202.156 24.2897 201.278 25.2264 200.64 26.4432C200.003 27.6406 199.684 29.0505 199.684 30.6728C199.684 32.2758 200.003 33.6857 200.64 34.9024C201.278 36.0998 202.156 37.0269 203.277 37.6835C204.397 38.3402 205.662 38.6685 207.072 38.6685C208.539 38.6685 209.795 38.3498 210.838 37.7125C211.9 37.0559 212.711 36.1192 213.271 34.9024H216.429C215.676 36.8337 214.478 38.3305 212.837 39.3928C211.195 40.4357 209.273 40.9571 207.072 40.9571C205.198 40.9571 203.489 40.5226 201.944 39.6535C200.418 38.7651 199.211 37.5387 198.323 35.9743C197.434 34.4099 196.99 32.6428 196.99 30.6728ZM232.781 20.5912V22.735H227.277V40.7833H224.641V22.735H219.107V20.5912H232.781Z" fill="white"/>
<path d="M236.867 40.9571C236.364 40.9571 235.939 40.7833 235.592 40.4357C235.244 40.088 235.07 39.6632 235.07 39.161C235.07 38.6589 235.244 38.234 235.592 37.8863C235.939 37.5387 236.364 37.3649 236.867 37.3649C237.349 37.3649 237.755 37.5387 238.083 37.8863C238.431 38.234 238.605 38.6589 238.605 39.161C238.605 39.6632 238.431 40.088 238.083 40.4357C237.755 40.7833 237.349 40.9571 236.867 40.9571ZM255.609 26.5011C255.609 28.1814 255.03 29.5816 253.871 30.7018C252.731 31.8026 250.983 32.3531 248.627 32.3531H244.745V40.7833H242.109V20.5912H248.627C250.906 20.5912 252.635 21.1417 253.813 22.2425C255.01 23.3434 255.609 24.7629 255.609 26.5011ZM248.627 30.1803C250.095 30.1803 251.177 29.8616 251.872 29.2243C252.567 28.587 252.915 27.6792 252.915 26.5011C252.915 24.0097 251.486 22.764 248.627 22.764H244.745V30.1803H248.627ZM268.04 40.9861C266.167 40.9861 264.457 40.5516 262.912 39.6825C261.367 38.7941 260.141 37.5677 259.233 36.0033C258.345 34.4196 257.901 32.6428 257.901 30.6728C257.901 28.7028 258.345 26.9357 259.233 25.3713C260.141 23.7876 261.367 22.5612 262.912 21.6921C264.457 20.8037 266.167 20.3595 268.04 20.3595C269.933 20.3595 271.652 20.8037 273.197 21.6921C274.742 22.5612 275.959 23.7779 276.847 25.3423C277.735 26.9067 278.18 28.6835 278.18 30.6728C278.18 32.6621 277.735 34.4389 276.847 36.0033C275.959 37.5677 274.742 38.7941 273.197 39.6825C271.652 40.5516 269.933 40.9861 268.04 40.9861ZM268.04 38.6975C269.45 38.6975 270.715 38.3692 271.835 37.7125C272.975 37.0559 273.863 36.1192 274.5 34.9024C275.157 33.6857 275.485 32.2758 275.485 30.6728C275.485 29.0505 275.157 27.6406 274.5 26.4432C273.863 25.2264 272.984 24.2897 271.864 23.6331C270.744 22.9764 269.469 22.6481 268.04 22.6481C266.611 22.6481 265.336 22.9764 264.216 23.6331C263.096 24.2897 262.207 25.2264 261.551 26.4432C260.913 27.6406 260.595 29.0505 260.595 30.6728C260.595 32.2758 260.913 33.6857 261.551 34.9024C262.207 36.1192 263.096 37.0559 264.216 37.7125C265.356 38.3692 266.63 38.6975 268.04 38.6975ZM292.292 40.7833L287.483 32.5269H284.296V40.7833H281.66V20.5912H288.178C289.704 20.5912 290.988 20.852 292.031 21.3734C293.093 21.8949 293.885 22.5998 294.407 23.4882C294.928 24.3766 295.189 25.3906 295.189 26.5301C295.189 27.9206 294.783 29.147 293.972 30.2093C293.18 31.2715 291.983 31.9764 290.38 32.3241L295.45 40.7833H292.292ZM284.296 30.4121H288.178C289.607 30.4121 290.679 30.0644 291.394 29.3691C292.108 28.6546 292.466 27.7082 292.466 26.5301C292.466 25.3327 292.108 24.4056 291.394 23.749C290.698 23.0923 289.627 22.764 288.178 22.764H284.296V30.4121ZM311.713 20.5912V22.735H306.209V40.7833H303.573V22.735H298.039V20.5912H311.713Z" fill="#0EA4E9"/>
<path d="M98.4952 55.0838C97.9446 55.0838 97.4578 54.988 97.0349 54.7965C96.6199 54.605 96.2928 54.3377 96.0534 53.9945C95.814 53.6514 95.6863 53.2683 95.6703 52.8454H96.5561C96.596 53.2524 96.7756 53.6115 97.0948 53.9227C97.414 54.2259 97.8808 54.3776 98.4952 54.3776C99.0618 54.3776 99.5087 54.2339 99.8359 53.9466C100.171 53.6514 100.339 53.2803 100.339 52.8334C100.339 52.4743 100.247 52.187 100.063 51.9716C99.8798 51.7481 99.6523 51.5846 99.381 51.4808C99.1097 51.3691 98.7346 51.2494 98.2558 51.1217C97.6972 50.9701 97.2544 50.8225 96.9272 50.6788C96.6 50.5352 96.3207 50.3117 96.0893 50.0085C95.8579 49.7053 95.7421 49.2943 95.7421 48.7756C95.7421 48.3447 95.8539 47.9616 96.0773 47.6265C96.3007 47.2833 96.616 47.016 97.0229 46.8245C97.4299 46.633 97.8967 46.5372 98.4234 46.5372C99.1975 46.5372 99.8199 46.7287 100.291 47.1118C100.77 47.4868 101.045 47.9736 101.117 48.5721H100.207C100.151 48.229 99.9636 47.9257 99.6444 47.6624C99.3252 47.3911 98.8942 47.2554 98.3516 47.2554C97.8489 47.2554 97.4299 47.3911 97.0948 47.6624C96.7596 47.9257 96.592 48.2888 96.592 48.7517C96.592 49.1028 96.6838 49.3861 96.8673 49.6015C97.0509 49.817 97.2783 49.9806 97.5496 50.0923C97.8289 50.204 98.204 50.3237 98.6748 50.4514C99.2174 50.603 99.6563 50.7546 99.9915 50.9063C100.327 51.0499 100.61 51.2733 100.841 51.5766C101.073 51.8798 101.188 52.2868 101.188 52.7975C101.188 53.1885 101.085 53.5596 100.877 53.9107C100.67 54.2618 100.363 54.5451 99.9556 54.7606C99.5486 54.9761 99.0618 55.0838 98.4952 55.0838ZM108.721 51.397C108.721 51.6843 108.713 51.9038 108.697 52.0554H103.274C103.298 52.5501 103.418 52.9731 103.634 53.3242C103.849 53.6753 104.132 53.9426 104.483 54.1262C104.835 54.3017 105.218 54.3895 105.633 54.3895C106.175 54.3895 106.63 54.2579 106.997 53.9945C107.372 53.7312 107.62 53.3761 107.739 52.9292H108.625C108.465 53.5676 108.122 54.0903 107.596 54.4973C107.077 54.8963 106.423 55.0958 105.633 55.0958C105.018 55.0958 104.467 54.9601 103.981 54.6888C103.494 54.4095 103.111 54.0185 102.832 53.5157C102.56 53.005 102.425 52.4105 102.425 51.7322C102.425 51.0539 102.56 50.4594 102.832 49.9487C103.103 49.4379 103.482 49.0469 103.969 48.7756C104.455 48.5043 105.01 48.3686 105.633 48.3686C106.255 48.3686 106.798 48.5043 107.26 48.7756C107.731 49.0469 108.09 49.414 108.338 49.8768C108.593 50.3317 108.721 50.8384 108.721 51.397ZM107.871 51.3731C107.879 50.8863 107.779 50.4713 107.572 50.1282C107.372 49.7851 107.097 49.5257 106.746 49.3502C106.395 49.1746 106.012 49.0868 105.597 49.0868C104.974 49.0868 104.444 49.2863 104.005 49.6853C103.566 50.0843 103.322 50.6469 103.274 51.3731H107.871ZM111.092 49.6255C111.275 49.2185 111.555 48.9033 111.93 48.6798C112.313 48.4564 112.779 48.3447 113.33 48.3447V49.2185H113.103C112.496 49.2185 112.009 49.3821 111.642 49.7093C111.275 50.0364 111.092 50.5831 111.092 51.3491V55H110.254V48.4644H111.092V49.6255ZM116.913 54.186L119.115 48.4644H120.001L117.38 55H116.434L113.813 48.4644H114.71L116.913 54.186ZM121.556 47.2315C121.388 47.2315 121.244 47.1716 121.125 47.0519C121.005 46.9322 120.945 46.7846 120.945 46.609C120.945 46.4335 121.005 46.2898 121.125 46.1781C121.244 46.0584 121.388 45.9986 121.556 45.9986C121.723 45.9986 121.867 46.0584 121.987 46.1781C122.106 46.2898 122.166 46.4335 122.166 46.609C122.166 46.7846 122.106 46.9322 121.987 47.0519C121.867 47.1716 121.723 47.2315 121.556 47.2315ZM121.975 48.4644V55H121.137V48.4644H121.975ZM126.661 54.3895C127.212 54.3895 127.67 54.2579 128.038 53.9945C128.413 53.7232 128.656 53.3481 128.768 52.8693H129.665C129.522 53.4998 129.211 54.0145 128.732 54.4135C128.261 54.8125 127.663 55.0359 126.936 55.0838V55.802C127.407 55.786 127.778 55.8738 128.05 56.0653C128.329 56.2648 128.468 56.5481 128.468 56.9152C128.468 57.2743 128.341 57.5576 128.085 57.7651C127.83 57.9805 127.491 58.0883 127.068 58.0883H125.871V57.5257H126.9C127.196 57.5257 127.411 57.4738 127.547 57.3701C127.69 57.2743 127.762 57.1227 127.762 56.9152C127.762 56.5322 127.475 56.3406 126.9 56.3406H126.35V55.0838C125.791 55.0359 125.296 54.8723 124.866 54.593C124.435 54.3057 124.095 53.9187 123.848 53.4319C123.609 52.9372 123.489 52.3706 123.489 51.7322C123.489 51.0539 123.625 50.4634 123.896 49.9606C124.167 49.4499 124.542 49.0589 125.021 48.7876C125.5 48.5083 126.047 48.3686 126.661 48.3686C127.467 48.3686 128.129 48.5681 128.648 48.9671C129.175 49.3661 129.514 49.9088 129.665 50.595H128.768C128.656 50.1242 128.413 49.7571 128.038 49.4938C127.67 49.2225 127.212 49.0868 126.661 49.0868C126.222 49.0868 125.827 49.1866 125.476 49.3861C125.125 49.5856 124.846 49.8848 124.638 50.2838C124.439 50.6748 124.339 51.1576 124.339 51.7322C124.339 52.3067 124.439 52.7935 124.638 53.1925C124.846 53.5915 125.125 53.8908 125.476 54.0903C125.827 54.2898 126.222 54.3895 126.661 54.3895ZM134.074 55.0958C133.459 55.0958 132.905 54.9601 132.41 54.6888C131.923 54.4095 131.536 54.0185 131.249 53.5157C130.97 53.005 130.83 52.4105 130.83 51.7322C130.83 51.0539 130.974 50.4634 131.261 49.9606C131.548 49.4499 131.939 49.0589 132.434 48.7876C132.929 48.5083 133.483 48.3686 134.098 48.3686C134.712 48.3686 135.267 48.5083 135.762 48.7876C136.264 49.0589 136.655 49.4499 136.935 49.9606C137.222 50.4634 137.366 51.0539 137.366 51.7322C137.366 52.4025 137.222 52.993 136.935 53.5037C136.647 54.0145 136.252 54.4095 135.75 54.6888C135.247 54.9601 134.688 55.0958 134.074 55.0958ZM134.074 54.3656C134.505 54.3656 134.904 54.2698 135.271 54.0783C135.638 53.8788 135.933 53.5835 136.157 53.1925C136.388 52.7935 136.504 52.3067 136.504 51.7322C136.504 51.1576 136.392 50.6748 136.169 50.2838C135.945 49.8848 135.65 49.5896 135.283 49.398C134.916 49.1985 134.517 49.0988 134.086 49.0988C133.655 49.0988 133.256 49.1985 132.889 49.398C132.522 49.5896 132.226 49.8848 132.003 50.2838C131.788 50.6748 131.68 51.1576 131.68 51.7322C131.68 52.3067 131.788 52.7935 132.003 53.1925C132.226 53.5835 132.518 53.8788 132.877 54.0783C133.244 54.2698 133.643 54.3656 134.074 54.3656ZM143.016 46.1422V55H142.178V46.1422H143.016ZM147.774 55.0958C147.159 55.0958 146.605 54.9601 146.11 54.6888C145.623 54.4095 145.236 54.0185 144.949 53.5157C144.67 53.005 144.53 52.4105 144.53 51.7322C144.53 51.0539 144.674 50.4634 144.961 49.9606C145.248 49.4499 145.639 49.0589 146.134 48.7876C146.629 48.5083 147.183 48.3686 147.798 48.3686C148.412 48.3686 148.967 48.5083 149.462 48.7876C149.964 49.0589 150.355 49.4499 150.635 49.9606C150.922 50.4634 151.066 51.0539 151.066 51.7322C151.066 52.4025 150.922 52.993 150.635 53.5037C150.347 54.0145 149.952 54.4095 149.45 54.6888C148.947 54.9601 148.388 55.0958 147.774 55.0958ZM147.774 54.3656C148.205 54.3656 148.604 54.2698 148.971 54.0783C149.338 53.8788 149.633 53.5835 149.857 53.1925C150.088 52.7935 150.204 52.3067 150.204 51.7322C150.204 51.1576 150.092 50.6748 149.869 50.2838C149.645 49.8848 149.35 49.5896 148.983 49.398C148.616 49.1985 148.217 49.0988 147.786 49.0988C147.355 49.0988 146.956 49.1985 146.589 49.398C146.222 49.5896 145.926 49.8848 145.703 50.2838C145.488 50.6748 145.38 51.1576 145.38 51.7322C145.38 52.3067 145.488 52.7935 145.703 53.1925C145.926 53.5835 146.218 53.8788 146.577 54.0783C146.944 54.2698 147.343 54.3656 147.774 54.3656ZM155.334 48.3686C155.949 48.3686 156.483 48.5123 156.938 48.7995C157.393 49.0868 157.72 49.4499 157.92 49.8888V48.4644H158.758V55.1676C158.758 55.7661 158.626 56.2968 158.363 56.7596C158.107 57.2224 157.748 57.5775 157.285 57.8249C156.822 58.0803 156.296 58.208 155.705 58.208C154.867 58.208 154.169 58.0085 153.61 57.6095C153.06 57.2105 152.717 56.6678 152.581 55.9815H153.407C153.551 56.4364 153.822 56.7995 154.221 57.0708C154.628 57.3421 155.123 57.4778 155.705 57.4778C156.128 57.4778 156.507 57.386 156.842 57.2025C157.178 57.0269 157.441 56.7636 157.632 56.4125C157.824 56.0613 157.92 55.6464 157.92 55.1676V53.5516C157.712 53.9985 157.381 54.3696 156.926 54.6648C156.479 54.9521 155.949 55.0958 155.334 55.0958C154.736 55.0958 154.197 54.9561 153.718 54.6768C153.247 54.3975 152.876 54.0025 152.605 53.4918C152.342 52.9811 152.21 52.3905 152.21 51.7202C152.21 51.0499 152.342 50.4634 152.605 49.9606C152.876 49.4499 153.247 49.0589 153.718 48.7876C154.197 48.5083 154.736 48.3686 155.334 48.3686ZM157.92 51.7322C157.92 51.2055 157.812 50.7427 157.596 50.3437C157.381 49.9447 157.086 49.6374 156.711 49.422C156.344 49.2065 155.937 49.0988 155.49 49.0988C155.027 49.0988 154.612 49.2025 154.245 49.41C153.878 49.6175 153.587 49.9207 153.371 50.3197C153.164 50.7107 153.06 51.1776 153.06 51.7202C153.06 52.2549 153.164 52.7257 153.371 53.1327C153.587 53.5317 153.878 53.8389 154.245 54.0544C154.612 54.2618 155.027 54.3656 155.49 54.3656C155.937 54.3656 156.344 54.2579 156.711 54.0424C157.086 53.8269 157.381 53.5197 157.596 53.1207C157.812 52.7217 157.92 52.2589 157.92 51.7322ZM161.508 48.4644V55H160.67V48.4644H161.508ZM162.191 46.5372L159.737 47.9616V47.3153L162.191 45.7831V46.5372ZM165.656 55.0958C164.906 55.0958 164.292 54.9242 163.813 54.581C163.342 54.2299 163.079 53.7551 163.023 53.1566H163.885C163.924 53.5237 164.096 53.8229 164.399 54.0544C164.71 54.2778 165.125 54.3895 165.644 54.3895C166.099 54.3895 166.454 54.2818 166.709 54.0663C166.973 53.8509 167.104 53.5835 167.104 53.2643C167.104 53.0409 167.033 52.8574 166.889 52.7137C166.745 52.5701 166.562 52.4584 166.338 52.3786C166.123 52.2908 165.828 52.199 165.453 52.1033C164.966 51.9756 164.571 51.8479 164.268 51.7202C163.964 51.5925 163.705 51.405 163.49 51.1576C163.282 50.9023 163.178 50.5631 163.178 50.1402C163.178 49.821 163.274 49.5257 163.466 49.2544C163.657 48.9831 163.928 48.7676 164.28 48.608C164.631 48.4484 165.03 48.3686 165.477 48.3686C166.179 48.3686 166.745 48.5482 167.176 48.9073C167.607 49.2584 167.839 49.7452 167.871 50.3676H167.033C167.009 49.9846 166.857 49.6773 166.578 49.4459C166.306 49.2065 165.931 49.0868 165.453 49.0868C165.03 49.0868 164.687 49.1866 164.423 49.3861C164.16 49.5856 164.028 49.8329 164.028 50.1282C164.028 50.3836 164.104 50.595 164.256 50.7626C164.415 50.9222 164.611 51.0499 164.842 51.1457C165.074 51.2334 165.385 51.3332 165.776 51.4449C166.247 51.5726 166.622 51.6963 166.901 51.816C167.18 51.9357 167.42 52.1112 167.619 52.3427C167.819 52.5741 167.922 52.8813 167.93 53.2643C167.93 53.6155 167.835 53.9307 167.643 54.21C167.452 54.4813 167.184 54.6968 166.841 54.8564C166.498 55.016 166.103 55.0958 165.656 55.0958ZM170.597 49.1706V53.2284C170.597 53.6274 170.673 53.9027 170.824 54.0544C170.976 54.206 171.243 54.2818 171.626 54.2818H172.392V55H171.495C170.904 55 170.465 54.8643 170.178 54.593C169.891 54.3137 169.747 53.8589 169.747 53.2284V49.1706H168.837V48.4644H169.747V46.8245H170.597V48.4644H172.392V49.1706H170.597ZM174.193 47.2315C174.026 47.2315 173.882 47.1716 173.762 47.0519C173.643 46.9322 173.583 46.7846 173.583 46.609C173.583 46.4335 173.643 46.2898 173.762 46.1781C173.882 46.0584 174.026 45.9986 174.193 45.9986C174.361 45.9986 174.504 46.0584 174.624 46.1781C174.744 46.2898 174.804 46.4335 174.804 46.609C174.804 46.7846 174.744 46.9322 174.624 47.0519C174.504 47.1716 174.361 47.2315 174.193 47.2315ZM174.612 48.4644V55H173.774V48.4644H174.612ZM176.127 51.7322C176.127 51.0539 176.262 50.4634 176.534 49.9606C176.805 49.4499 177.18 49.0589 177.659 48.7876C178.138 48.5083 178.684 48.3686 179.299 48.3686C180.105 48.3686 180.767 48.5681 181.286 48.9671C181.812 49.3661 182.151 49.9088 182.303 50.595H181.405C181.294 50.1242 181.05 49.7571 180.675 49.4938C180.308 49.2225 179.849 49.0868 179.299 49.0868C178.86 49.0868 178.465 49.1866 178.114 49.3861C177.762 49.5856 177.483 49.8848 177.276 50.2838C177.076 50.6748 176.976 51.1576 176.976 51.7322C176.976 52.3067 177.076 52.7935 177.276 53.1925C177.483 53.5915 177.762 53.8908 178.114 54.0903C178.465 54.2898 178.86 54.3895 179.299 54.3895C179.849 54.3895 180.308 54.2579 180.675 53.9945C181.05 53.7232 181.294 53.3481 181.405 52.8693H182.303C182.151 53.5397 181.812 54.0783 181.286 54.4853C180.759 54.8923 180.097 55.0958 179.299 55.0958C178.684 55.0958 178.138 54.9601 177.659 54.6888C177.18 54.4095 176.805 54.0185 176.534 53.5157C176.262 53.005 176.127 52.4105 176.127 51.7322ZM186.711 55.0958C186.097 55.0958 185.542 54.9601 185.048 54.6888C184.561 54.4095 184.174 54.0185 183.887 53.5157C183.607 53.005 183.468 52.4105 183.468 51.7322C183.468 51.0539 183.611 50.4634 183.898 49.9606C184.186 49.4499 184.577 49.0589 185.072 48.7876C185.566 48.5083 186.121 48.3686 186.735 48.3686C187.35 48.3686 187.904 48.5083 188.399 48.7876C188.902 49.0589 189.293 49.4499 189.572 49.9606C189.86 50.4634 190.003 51.0539 190.003 51.7322C190.003 52.4025 189.86 52.993 189.572 53.5037C189.285 54.0145 188.89 54.4095 188.387 54.6888C187.884 54.9601 187.326 55.0958 186.711 55.0958ZM186.711 54.3656C187.142 54.3656 187.541 54.2698 187.908 54.0783C188.276 53.8788 188.571 53.5835 188.794 53.1925C189.026 52.7935 189.141 52.3067 189.141 51.7322C189.141 51.1576 189.03 50.6748 188.806 50.2838C188.583 49.8848 188.287 49.5896 187.92 49.398C187.553 49.1985 187.154 49.0988 186.723 49.0988C186.292 49.0988 185.893 49.1985 185.526 49.398C185.159 49.5896 184.864 49.8848 184.641 50.2838C184.425 50.6748 184.317 51.1576 184.317 51.7322C184.317 52.3067 184.425 52.7935 184.641 53.1925C184.864 53.5835 185.155 53.8788 185.514 54.0783C185.882 54.2698 186.281 54.3656 186.711 54.3656ZM195.641 49.9008C195.849 49.4619 196.176 49.0988 196.623 48.8115C197.078 48.5162 197.616 48.3686 198.239 48.3686C198.829 48.3686 199.36 48.5083 199.831 48.7876C200.31 49.0589 200.681 49.4499 200.944 49.9606C201.215 50.4634 201.351 51.0499 201.351 51.7202C201.351 52.3905 201.215 52.9811 200.944 53.4918C200.681 54.0025 200.31 54.3975 199.831 54.6768C199.36 54.9561 198.829 55.0958 198.239 55.0958C197.624 55.0958 197.09 54.9521 196.635 54.6648C196.18 54.3696 195.849 54.0025 195.641 53.5636V58.0883H194.815V48.4644H195.641V49.9008ZM200.501 51.7202C200.501 51.1776 200.393 50.7107 200.178 50.3197C199.97 49.9207 199.683 49.6175 199.316 49.41C198.949 49.2025 198.534 49.0988 198.071 49.0988C197.624 49.0988 197.213 49.2065 196.838 49.422C196.471 49.6374 196.18 49.9447 195.964 50.3437C195.749 50.7427 195.641 51.2055 195.641 51.7322C195.641 52.2589 195.749 52.7217 195.964 53.1207C196.18 53.5197 196.471 53.8269 196.838 54.0424C197.213 54.2579 197.624 54.3656 198.071 54.3656C198.534 54.3656 198.949 54.2618 199.316 54.0544C199.683 53.8389 199.97 53.5317 200.178 53.1327C200.393 52.7257 200.501 52.2549 200.501 51.7202ZM205.754 55.0958C205.139 55.0958 204.584 54.9601 204.09 54.6888C203.603 54.4095 203.216 54.0185 202.929 53.5157C202.649 53.005 202.51 52.4105 202.51 51.7322C202.51 51.0539 202.653 50.4634 202.941 49.9606C203.228 49.4499 203.619 49.0589 204.114 48.7876C204.608 48.5083 205.163 48.3686 205.777 48.3686C206.392 48.3686 206.947 48.5083 207.441 48.7876C207.944 49.0589 208.335 49.4499 208.614 49.9606C208.902 50.4634 209.045 51.0539 209.045 51.7322C209.045 52.4025 208.902 52.993 208.614 53.5037C208.327 54.0145 207.932 54.4095 207.429 54.6888C206.927 54.9601 206.368 55.0958 205.754 55.0958ZM205.754 54.3656C206.184 54.3656 206.583 54.2698 206.951 54.0783C207.318 53.8788 207.613 53.5835 207.836 53.1925C208.068 52.7935 208.183 52.3067 208.183 51.7322C208.183 51.1576 208.072 50.6748 207.848 50.2838C207.625 49.8848 207.33 49.5896 206.963 49.398C206.595 49.1985 206.196 49.0988 205.766 49.0988C205.335 49.0988 204.936 49.1985 204.569 49.398C204.201 49.5896 203.906 49.8848 203.683 50.2838C203.467 50.6748 203.36 51.1576 203.36 51.7322C203.36 52.3067 203.467 52.7935 203.683 53.1925C203.906 53.5835 204.197 53.8788 204.557 54.0783C204.924 54.2698 205.323 54.3656 205.754 54.3656ZM211.411 49.6255C211.594 49.2185 211.873 48.9033 212.248 48.6798C212.632 48.4564 213.098 48.3447 213.649 48.3447V49.2185H213.422C212.815 49.2185 212.328 49.3821 211.961 49.7093C211.594 50.0364 211.411 50.5831 211.411 51.3491V55H210.573V48.4644H211.411V49.6255ZM215.999 49.1706V53.2284C215.999 53.6274 216.075 53.9027 216.226 54.0544C216.378 54.206 216.645 54.2818 217.028 54.2818H217.794V55H216.896C216.306 55 215.867 54.8643 215.58 54.593C215.293 54.3137 215.149 53.8589 215.149 53.2284V49.1706H214.239V48.4644H215.149V46.8245H215.999V48.4644H217.794V49.1706H215.999ZM224.838 48.4644V55H224V53.8509C223.809 54.2579 223.513 54.5691 223.114 54.7845C222.715 55 222.268 55.1077 221.774 55.1077C220.992 55.1077 220.353 54.8683 219.858 54.3895C219.364 53.9027 219.116 53.2005 219.116 52.2828V48.4644H219.942V52.187C219.942 52.8973 220.118 53.4399 220.469 53.815C220.828 54.19 221.315 54.3776 221.929 54.3776C222.56 54.3776 223.062 54.1781 223.437 53.7791C223.813 53.3801 224 52.7935 224 52.0195V48.4644H224.838ZM226.368 51.7202C226.368 51.0499 226.5 50.4634 226.763 49.9606C227.034 49.4499 227.405 49.0589 227.876 48.7876C228.355 48.5083 228.894 48.3686 229.492 48.3686C230.114 48.3686 230.649 48.5123 231.096 48.7995C231.551 49.0868 231.878 49.4539 232.078 49.9008V48.4644H232.915V55H232.078V53.5516C231.87 53.9985 231.539 54.3696 231.084 54.6648C230.637 54.9521 230.102 55.0958 229.48 55.0958C228.89 55.0958 228.355 54.9561 227.876 54.6768C227.405 54.3975 227.034 54.0025 226.763 53.4918C226.5 52.9811 226.368 52.3905 226.368 51.7202ZM232.078 51.7322C232.078 51.2055 231.97 50.7427 231.754 50.3437C231.539 49.9447 231.244 49.6374 230.869 49.422C230.501 49.2065 230.095 49.0988 229.648 49.0988C229.185 49.0988 228.77 49.2025 228.403 49.41C228.036 49.6175 227.744 49.9207 227.529 50.3197C227.321 50.7107 227.218 51.1776 227.218 51.7202C227.218 52.2549 227.321 52.7257 227.529 53.1327C227.744 53.5317 228.036 53.8389 228.403 54.0544C228.77 54.2618 229.185 54.3656 229.648 54.3656C230.095 54.3656 230.501 54.2579 230.869 54.0424C231.244 53.8269 231.539 53.5197 231.754 53.1207C231.97 52.7217 232.078 52.2589 232.078 51.7322ZM230.952 46.5372L228.499 47.9616V47.3153L230.952 45.7831V46.5372ZM235.666 49.6255C235.85 49.2185 236.129 48.9033 236.504 48.6798C236.887 48.4564 237.354 48.3447 237.905 48.3447V49.2185H237.677C237.071 49.2185 236.584 49.3821 236.217 49.7093C235.85 50.0364 235.666 50.5831 235.666 51.3491V55H234.828V48.4644H235.666V49.6255ZM239.584 47.2315C239.416 47.2315 239.273 47.1716 239.153 47.0519C239.033 46.9322 238.974 46.7846 238.974 46.609C238.974 46.4335 239.033 46.2898 239.153 46.1781C239.273 46.0584 239.416 45.9986 239.584 45.9986C239.752 45.9986 239.895 46.0584 240.015 46.1781C240.135 46.2898 240.195 46.4335 240.195 46.609C240.195 46.7846 240.135 46.9322 240.015 47.0519C239.895 47.1716 239.752 47.2315 239.584 47.2315ZM240.003 48.4644V55H239.165V48.4644H240.003ZM244.761 55.0958C244.147 55.0958 243.592 54.9601 243.097 54.6888C242.611 54.4095 242.224 54.0185 241.936 53.5157C241.657 53.005 241.517 52.4105 241.517 51.7322C241.517 51.0539 241.661 50.4634 241.948 49.9606C242.236 49.4499 242.627 49.0589 243.121 48.7876C243.616 48.5083 244.171 48.3686 244.785 48.3686C245.4 48.3686 245.954 48.5083 246.449 48.7876C246.952 49.0589 247.343 49.4499 247.622 49.9606C247.909 50.4634 248.053 51.0539 248.053 51.7322C248.053 52.4025 247.909 52.993 247.622 53.5037C247.335 54.0145 246.94 54.4095 246.437 54.6888C245.934 54.9601 245.376 55.0958 244.761 55.0958ZM244.761 54.3656C245.192 54.3656 245.591 54.2698 245.958 54.0783C246.325 53.8788 246.621 53.5835 246.844 53.1925C247.075 52.7935 247.191 52.3067 247.191 51.7322C247.191 51.1576 247.079 50.6748 246.856 50.2838C246.633 49.8848 246.337 49.5896 245.97 49.398C245.603 49.1985 245.204 49.0988 244.773 49.0988C244.342 49.0988 243.943 49.1985 243.576 49.398C243.209 49.5896 242.914 49.8848 242.69 50.2838C242.475 50.6748 242.367 51.1576 242.367 51.7322C242.367 52.3067 242.475 52.7935 242.69 53.1925C242.914 53.5835 243.205 53.8788 243.564 54.0783C243.931 54.2698 244.33 54.3656 244.761 54.3656Z" fill="white" fill-opacity="0.6"/>
<path d="M0.00923298 23.0066C-0.273926 25.8382 6.02636 36.2207 9.2119 41.058C10.0614 31.9969 6.02636 21.0009 3.90268 16.6355C2.72285 17.5794 0.292392 20.175 0.00923298 23.0066Z" fill="url(#paint0_linear_27_29)"/>
<path d="M27.6173 62.6488C17.7067 62.6488 13.1054 68.312 12.0435 71.1436C11.8076 63.0028 11.1941 44.5267 10.6277 35.7487C10.0614 26.9708 6.85228 19.3491 5.31851 16.6355C5.20052 16.1636 7.01746 15.5029 15.2291 16.6355C25.4936 18.0513 33.6344 22.6526 48.5002 32.5632C60.3929 40.4917 72.5687 43.8896 77.1701 44.5975V52.0304C77.0521 52.5023 74.5509 54.4372 65.4898 58.4014C54.1634 63.3567 40.0055 62.6488 27.6173 62.6488Z" fill="url(#paint1_linear_27_29)"/>
<path d="M61.2424 20.529H54.8713L56.6411 21.9448H63.7201V16.2816L61.2424 13.804V20.529Z" fill="url(#paint2_linear_27_29)"/>
<path d="M63.0121 12.7421C61.8794 11.3263 55.6971 10.7363 52.7476 10.6184C54.1634 8.14072 57.3489 7.07888 59.8265 8.14072C62.3042 9.20257 64.4279 10.6184 65.8437 15.5736C66.9763 19.5379 67.2594 26.664 67.2594 29.7316L59.1186 24.0684H64.0739C64.3099 23.9504 64.7818 23.1481 64.7818 20.8829C64.7818 18.0513 64.4279 14.5118 63.0121 12.7421Z" fill="url(#paint3_linear_27_29)"/>
<path d="M39.2975 0C35.6165 0 33.2804 6.13511 32.5725 9.20266V9.91056H49.2081C49.3261 9.43863 49.3497 7.78687 48.5002 4.95528C47.4383 1.41579 43.8989 0 39.2975 0Z" fill="url(#paint4_linear_27_29)"/>
<path d="M38.2357 24.7764C31.4399 20.2459 25.9655 18.4053 24.0778 18.0514C19.2641 16.6356 14.2852 15.8097 12.3975 15.5737V11.6803C13.8133 11.4443 19.2641 10.9724 29.7409 10.9724C40.2178 10.9724 54.3994 11.9163 60.1805 12.3882V19.4672H52.3937V33.9791C50.5059 32.7992 45.0315 29.3069 38.2357 24.7764Z" fill="url(#paint5_linear_27_29)"/>
<path d="M54.1633 21.5908V34.6869L71.8608 42.8277V39.2882L69.0292 37.1646V33.2711L54.1633 21.5908Z" fill="url(#paint6_linear_27_29)"/>
<ellipse cx="57.1823" cy="30.3609" rx="1.25848" ry="2.20235" fill="white"/>
<ellipse cx="61.587" cy="33.507" rx="1.25848" ry="2.20235" fill="white"/>
<ellipse cx="65.9918" cy="36.0241" rx="1.25848" ry="2.20235" fill="white"/>
<rect x="29.7317" y="14.158" width="14.1579" height="3.53949" fill="white"/>
<rect x="44.5975" y="14.158" width="14.1579" height="3.53949" fill="white"/>
<path d="M29.0238 14.158H15.5737L25.4843 17.6974H29.0238V14.158Z" fill="white"/>
<defs>
<linearGradient id="paint0_linear_27_29" x1="4.66381" y1="16.6355" x2="4.66381" y2="41.058" gradientUnits="userSpaceOnUse">
<stop stop-color="#398CB3"/>
<stop offset="1" stop-color="#4C4E4F" stop-opacity="0"/>
</linearGradient>
<linearGradient id="paint1_linear_27_29" x1="41.2417" y1="16.0101" x2="41.2417" y2="71.1436" gradientUnits="userSpaceOnUse">
<stop stop-color="#398CB3"/>
<stop offset="1" stop-color="#4C4E4F" stop-opacity="0"/>
</linearGradient>
<linearGradient id="paint2_linear_27_29" x1="59.2957" y1="13.804" x2="59.2957" y2="21.9448" gradientUnits="userSpaceOnUse">
<stop stop-color="#398CB3"/>
<stop offset="1" stop-color="#4C4E4F" stop-opacity="0"/>
</linearGradient>
<linearGradient id="paint3_linear_27_29" x1="60.0035" y1="7.73071" x2="60.0035" y2="29.7316" gradientUnits="userSpaceOnUse">
<stop stop-color="#398CB3"/>
<stop offset="1" stop-color="#4C4E4F" stop-opacity="0"/>
</linearGradient>
<linearGradient id="paint4_linear_27_29" x1="40.9202" y1="0" x2="40.9202" y2="9.91056" gradientUnits="userSpaceOnUse">
<stop stop-color="#398CB3"/>
<stop offset="1" stop-color="#4C4E4F" stop-opacity="0"/>
</linearGradient>
<linearGradient id="paint5_linear_27_29" x1="36.289" y1="10.9724" x2="36.289" y2="33.9791" gradientUnits="userSpaceOnUse">
<stop stop-color="#398CB3"/>
<stop offset="1" stop-color="#4C4E4F" stop-opacity="0"/>
</linearGradient>
<linearGradient id="paint6_linear_27_29" x1="63.012" y1="21.5908" x2="63.012" y2="42.8277" gradientUnits="userSpaceOnUse">
<stop stop-color="#398CB3"/>
<stop offset="1" stop-color="#4C4E4F" stop-opacity="0"/>
</linearGradient>
</defs>
</svg>
